<svg width="28" height="28" viewBox="0 0 28 28" fill="none" xmlns="http://www.w3.org/2000/svg">
<path d="M14 8.16675V24.5001" stroke="black" stroke-width="2.33333" stroke-linecap="round" stroke-linejoin="round"/>
<path d="M3.50065 21C3.19123 21 2.89449 20.8771 2.67569 20.6583C2.4569 20.4395 2.33398 20.1428 2.33398 19.8333V4.66667C2.33398 4.35725 2.4569 4.0605 2.67569 3.84171C2.89449 3.62292 3.19123 3.5 3.50065 3.5H9.33398C10.5717 3.5 11.7586 3.99167 12.6338 4.86683C13.509 5.742 14.0007 6.92899 14.0007 8.16667C14.0007 6.92899 14.4923 5.742 15.3675 4.86683C16.2427 3.99167 17.4296 3.5 18.6673 3.5H24.5007C24.8101 3.5 25.1068 3.62292 25.3256 3.84171C25.5444 4.0605 25.6673 4.35725 25.6673 4.66667V19.8333C25.6673 20.1428 25.5444 20.4395 25.3256 20.6583C25.1068 20.8771 24.8101 21 24.5007 21H17.5007C16.5724 21 15.6822 21.3687 15.0258 22.0251C14.3694 22.6815 14.0007 23.5717 14.0007 24.5C14.0007 23.5717 13.6319 22.6815 12.9755 22.0251C12.3191 21.3687 11.4289 21 10.5007 21H3.50065Z" stroke="black" stroke-width="2.33333" stroke-linecap="round" stroke-linejoin="round"/>
</svg>
