<svg width="32" height="32" viewBox="0 0 32 32" fill="none" xmlns="http://www.w3.org/2000/svg">
<path d="M7.91504 29.0227V5.27707C7.91504 4.57732 8.19301 3.90624 8.68781 3.41144C9.1826 2.91665 9.85369 2.63867 10.5534 2.63867H21.107C21.8068 2.63867 22.4779 2.91665 22.9727 3.41144C23.4675 3.90624 23.7454 4.57732 23.7454 5.27707V29.0227H7.91504Z" stroke="#99A1AF" stroke-width="2.6384" stroke-linecap="round" stroke-linejoin="round"/>
<path d="M7.91547 15.8306H5.27707C4.57732 15.8306 3.90624 16.1085 3.41144 16.6033C2.91665 17.0981 2.63867 17.7692 2.63867 18.469V26.3842C2.63867 27.0839 2.91665 27.755 3.41144 28.2498C3.90624 28.7446 4.57732 29.0226 5.27707 29.0226H7.91547" stroke="#99A1AF" stroke-width="2.6384" stroke-linecap="round" stroke-linejoin="round"/>
<path d="M23.7451 11.8728H26.3835C27.0833 11.8728 27.7543 12.1508 28.2491 12.6456C28.7439 13.1404 29.0219 13.8115 29.0219 14.5112V26.384C29.0219 27.0837 28.7439 27.7548 28.2491 28.2496C27.7543 28.7444 27.0833 29.0224 26.3835 29.0224H23.7451" stroke="#99A1AF" stroke-width="2.6384" stroke-linecap="round" stroke-linejoin="round"/>
<path d="M13.1914 7.91577H18.4682" stroke="#99A1AF" stroke-width="2.6384" stroke-linecap="round" stroke-linejoin="round"/>
<path d="M13.1914 13.1924H18.4682" stroke="#99A1AF" stroke-width="2.6384" stroke-linecap="round" stroke-linejoin="round"/>
<path d="M13.1914 18.4688H18.4682" stroke="#99A1AF" stroke-width="2.6384" stroke-linecap="round" stroke-linejoin="round"/>
<path d="M13.1914 23.7461H18.4682" stroke="#99A1AF" stroke-width="2.6384" stroke-linecap="round" stroke-linejoin="round"/>
</svg>
