<svg width="32" height="32" viewBox="0 0 32 32" fill="none" xmlns="http://www.w3.org/2000/svg">
<path d="M8 29.3334V5.33341C8 4.62617 8.28095 3.94789 8.78105 3.4478C9.28115 2.9477 9.95942 2.66675 10.6667 2.66675H21.3333C22.0406 2.66675 22.7189 2.9477 23.219 3.4478C23.719 3.94789 24 4.62617 24 5.33341V29.3334H8Z" stroke="#FFD700" stroke-width="2.66667" stroke-linecap="round" stroke-linejoin="round"/>
<path d="M8.00033 16H5.33366C4.62641 16 3.94814 16.281 3.44804 16.781C2.94794 17.2811 2.66699 17.9594 2.66699 18.6667V26.6667C2.66699 27.3739 2.94794 28.0522 3.44804 28.5523C3.94814 29.0524 4.62641 29.3333 5.33366 29.3333H8.00033" stroke="#FFD700" stroke-width="2.66667" stroke-linecap="round" stroke-linejoin="round"/>
<path d="M24 12H26.6667C27.3739 12 28.0522 12.281 28.5523 12.781C29.0524 13.2811 29.3333 13.9594 29.3333 14.6667V26.6667C29.3333 27.3739 29.0524 28.0522 28.5523 28.5523C28.0522 29.0524 27.3739 29.3333 26.6667 29.3333H24" stroke="#FFD700" stroke-width="2.66667" stroke-linecap="round" stroke-linejoin="round"/>
<path d="M13.333 8H18.6663" stroke="#FFD700" stroke-width="2.66667" stroke-linecap="round" stroke-linejoin="round"/>
<path d="M13.333 13.3333H18.6663" stroke="#FFD700" stroke-width="2.66667" stroke-linecap="round" stroke-linejoin="round"/>
<path d="M13.333 18.6667H18.6663" stroke="#FFD700" stroke-width="2.66667" stroke-linecap="round" stroke-linejoin="round"/>
<path d="M13.333 24H18.6663" stroke="#FFD700" stroke-width="2.66667" stroke-linecap="round" stroke-linejoin="round"/>
</svg>
