<svg width="25" height="32" viewBox="0 0 25 32" fill="none" xmlns="http://www.w3.org/2000/svg">
<path d="M21.7969 16L23.9531 18.1094C24.6094 18.7188 24.2812 19.7969 23.4375 20.0312L20.5312 20.7812L21.3281 23.6875C21.5625 24.5312 20.8125 25.2812 19.9688 25.0469L17.0625 24.25L16.3125 27.1562C16.0781 28.0469 15 28.3281 14.3906 27.6719L12.3281 25.5156L10.2188 27.6719C9.60938 28.2812 8.53125 28.0469 8.29688 27.1562L7.54688 24.25L4.64062 25.0469C3.79688 25.2812 3.04688 24.5312 3.28125 23.6875L4.07812 20.7812L1.17188 20.0312C0.328125 19.7969 0 18.7188 0.65625 18.1094L2.8125 16L0.65625 13.8906C0 13.2812 0.328125 12.2031 1.17188 12.0156L4.07812 11.2656L3.28125 8.35938C3.04688 7.51562 3.79688 6.71875 4.64062 6.95312L7.54688 7.79688L8.29688 4.84375C8.48438 4 9.60938 3.71875 10.2188 4.375L12.3281 6.53125L14.3906 4.375C15 3.71875 16.125 4.04688 16.3125 4.84375L17.0625 7.79688L19.9688 6.95312C20.8125 6.71875 21.5625 7.51562 21.3281 8.35938L20.5312 11.2656L23.4375 12.0156C24.2812 12.2031 24.6094 13.2812 23.9531 13.8906L21.7969 16Z" fill="#22C55E"/>
</svg>
