<svg width="20" height="28" viewBox="0 0 20 28" fill="none" xmlns="http://www.w3.org/2000/svg">
<path d="M10 4.8125C15.3125 4.8125 19.6875 9.1875 19.6875 14.5C19.6875 19.8516 15.3125 24.1875 10 24.1875C4.64844 24.1875 0.3125 19.8516 0.3125 14.5C0.3125 9.1875 4.64844 4.8125 10 4.8125ZM10 21.6875C13.9453 21.6875 17.1875 18.4844 17.1875 14.5C17.1875 10.5547 13.9453 7.3125 10 7.3125C6.01562 7.3125 2.8125 10.5547 2.8125 14.5C2.8125 18.4844 6.01562 21.6875 10 21.6875ZM10 9.5C12.7344 9.5 15 11.7656 15 14.5C15 17.2734 12.7344 19.5 10 19.5C7.22656 19.5 5 17.2734 5 14.5C5 11.7656 7.22656 9.5 10 9.5ZM10 17C11.3672 17 12.5 15.9062 12.5 14.5C12.5 13.1328 11.3672 12 10 12C8.59375 12 7.5 13.1328 7.5 14.5C7.5 15.9062 8.59375 17 10 17Z" fill="#FF5A4E"/>
</svg>
