<svg width="15" height="25" viewBox="0 0 15 25" fill="none" xmlns="http://www.w3.org/2000/svg">
<path d="M3.45307 16.0939C3.89753 16.5726 4.54713 16.8119 5.19672 16.8119C5.64118 16.8119 6.05145 16.7093 6.42753 16.5042L4.6155 20.8804C4.47875 21.2223 4.0001 21.3249 3.72658 21.0172L2.49577 19.718L0.683746 19.7864C0.307665 19.8205 -3.80576e-05 19.4103 0.170908 19.0342L1.70942 15.2392C1.98294 15.4443 2.25645 15.6153 2.59834 15.6836C3.28213 15.8888 3.14537 15.7862 3.45307 16.0939ZM13.197 19.0342C13.3679 19.4103 13.0602 19.8205 12.6842 19.7864L10.8721 19.718L9.64132 21.0172C9.3678 21.3249 8.88915 21.2223 8.7524 20.8804L6.94037 16.5042C7.31645 16.7093 7.72672 16.8119 8.17118 16.8119C8.82078 16.8119 9.47037 16.5726 9.91483 16.0939C10.2225 15.7862 10.0516 15.8888 10.8037 15.6836C11.1115 15.6153 11.385 15.4443 11.6585 15.2392L13.197 19.0342ZM9.12848 15.3076C8.64983 15.7862 7.96605 15.8546 7.41902 15.5127C7.21388 15.3759 6.94037 15.3076 6.66686 15.3076C6.42753 15.3076 6.15402 15.3759 5.94888 15.5127C5.40186 15.8546 4.71807 15.7862 4.27361 15.3076C3.76077 14.7947 3.6924 14.8289 2.94023 14.6238C2.46158 14.5212 2.0855 14.1451 1.94875 13.6323C1.70942 12.675 1.7778 12.7776 1.05983 12.0938C0.717935 11.7177 0.581178 11.2049 0.717935 10.7262C0.95726 9.76892 0.95726 9.90567 0.717935 8.91419C0.581178 8.43554 0.717935 7.9227 1.05983 7.58081C1.7778 6.86283 1.70942 6.9654 1.94875 6.0081C2.0855 5.52945 2.46158 5.15337 2.94023 5.01662C3.89753 4.7431 3.76077 4.81148 4.47875 4.09351C4.82064 3.75162 5.33348 3.61486 5.81213 3.75162C6.73523 3.99094 6.63267 3.99094 7.55578 3.75162C8.03442 3.61486 8.54726 3.75162 8.88915 4.09351C9.60713 4.81148 9.47037 4.7431 10.4277 5.01662C10.9063 5.15337 11.2824 5.52945 11.4192 6.0081C11.6585 6.9654 11.5901 6.86283 12.3081 7.58081C12.65 7.9227 12.7867 8.43554 12.65 8.91419C12.4106 9.90567 12.4106 9.76892 12.65 10.7262C12.7867 11.2049 12.65 11.7177 12.3081 12.0938C11.5901 12.7776 11.6585 12.675 11.4192 13.6323C11.2824 14.1451 10.9063 14.5212 10.4277 14.6238C9.7097 14.8289 9.64132 14.7947 9.12848 15.3076ZM3.45307 9.70054C3.45307 11.5126 4.88902 12.9827 6.70105 12.9827C8.47888 12.9827 9.91483 11.5126 9.91483 9.70054C9.91483 7.88851 8.47888 6.41837 6.70105 6.41837C4.88902 6.41837 3.45307 7.88851 3.45307 9.70054Z" fill="#FFD400"/>
</svg>
