<svg width="27" height="36" viewBox="0 0 27 36" fill="none" xmlns="http://www.w3.org/2000/svg">
<path d="M7.00285 25.1868C7.89193 26.1442 9.19136 26.623 10.4908 26.623C11.3799 26.623 12.2006 26.4178 12.9529 26.0075L9.32815 34.7615C9.05458 35.4454 8.09711 35.6506 7.54998 35.0351L5.0879 32.4362L1.46318 32.573C0.710876 32.6414 0.0953562 31.8207 0.437311 31.0684L3.51491 23.477C4.06204 23.8873 4.60916 24.2293 5.29308 24.3661C6.6609 24.7764 6.38733 24.5712 7.00285 25.1868ZM26.4943 31.0684C26.8363 31.8207 26.2207 32.6414 25.4684 32.573L21.8437 32.4362L19.3816 35.0351C18.8345 35.6506 17.877 35.4454 17.6035 34.7615L13.9787 26.0075C14.731 26.4178 15.5517 26.623 16.4408 26.623C17.7402 26.623 19.0397 26.1442 19.9288 25.1868C20.5443 24.5712 20.2023 24.7764 21.7069 24.3661C22.3224 24.2293 22.8696 23.8873 23.4167 23.477L26.4943 31.0684ZM18.3558 23.6138C17.3983 24.5712 16.0305 24.708 14.9362 24.0241C14.5259 23.7505 13.9787 23.6138 13.4316 23.6138C12.9529 23.6138 12.4057 23.7505 11.9954 24.0241C10.9011 24.708 9.53332 24.5712 8.64424 23.6138C7.61837 22.5879 7.48159 22.6563 5.97699 22.2459C5.01951 22.0408 4.26721 21.2885 3.99365 20.2626C3.51491 18.3477 3.65169 18.5528 2.21548 17.185C1.53157 16.4327 1.258 15.4068 1.53157 14.4494C2.01031 12.5344 2.01031 12.808 1.53157 10.8246C1.258 9.86717 1.53157 8.8413 2.21548 8.15739C3.65169 6.72118 3.51491 6.92635 3.99365 5.0114C4.26721 4.05393 5.01951 3.30163 5.97699 3.02806C7.89193 2.48094 7.61837 2.61772 9.05458 1.18151C9.73849 0.497596 10.7644 0.224032 11.7218 0.497596C13.5684 0.976333 13.3632 0.976333 15.2098 0.497596C16.1673 0.224032 17.1931 0.497596 17.877 1.18151C19.3132 2.61772 19.0397 2.48094 20.9546 3.02806C21.9121 3.30163 22.6644 4.05393 22.938 5.0114C23.4167 6.92635 23.2799 6.72118 24.7161 8.15739C25.4 8.8413 25.6736 9.86717 25.4 10.8246C24.9213 12.808 24.9213 12.5344 25.4 14.4494C25.6736 15.4068 25.4 16.4327 24.7161 17.185C23.2799 18.5528 23.4167 18.3477 22.938 20.2626C22.6644 21.2885 21.9121 22.0408 20.9546 22.2459C19.5184 22.6563 19.3816 22.5879 18.3558 23.6138ZM7.00285 12.3976C7.00285 16.0224 9.87527 18.9632 13.5 18.9632C17.0563 18.9632 19.9288 16.0224 19.9288 12.3976C19.9288 8.77291 17.0563 5.8321 13.5 5.8321C9.87527 5.8321 7.00285 8.77291 7.00285 12.3976Z" fill="white"/>
</svg>
