<svg width="25" height="25" viewBox="0 0 25 25" fill="none" xmlns="http://www.w3.org/2000/svg">
<path d="M16.4059 21.5325V19.4818C16.4059 18.394 15.9737 17.3508 15.2046 16.5817C14.4354 15.8125 13.3922 15.3804 12.3044 15.3804H6.15223C5.06446 15.3804 4.02124 15.8125 3.25207 16.5817C2.4829 17.3508 2.05078 18.394 2.05078 19.4818V21.5325" stroke="black" stroke-width="2.05072" stroke-linecap="round" stroke-linejoin="round"/>
<path d="M9.2284 11.2786C11.4936 11.2786 13.3299 9.4423 13.3299 7.17713C13.3299 4.91197 11.4936 3.07568 9.2284 3.07568C6.96323 3.07568 5.12695 4.91197 5.12695 7.17713C5.12695 9.4423 6.96323 11.2786 9.2284 11.2786Z" stroke="black" stroke-width="2.05072" stroke-linecap="round" stroke-linejoin="round"/>
<path d="M22.5585 21.5321V19.4813C22.5578 18.5726 22.2554 17.6898 21.6986 16.9716C21.1418 16.2533 20.3623 15.7404 19.4824 15.5132" stroke="black" stroke-width="2.05072" stroke-linecap="round" stroke-linejoin="round"/>
<path d="M16.4062 3.20898C17.2885 3.43487 18.0705 3.94796 18.6289 4.66737C19.1873 5.38677 19.4904 6.27157 19.4904 7.18226C19.4904 8.09296 19.1873 8.97775 18.6289 9.69716C18.0705 10.4166 17.2885 10.9297 16.4062 11.1555" stroke="black" stroke-width="2.05072" stroke-linecap="round" stroke-linejoin="round"/>
</svg>
