<svg width="25" height="25" viewBox="0 0 25 25" fill="none" xmlns="http://www.w3.org/2000/svg">
<path d="M12.3044 22.558C17.9673 22.558 22.558 17.9673 22.558 12.3044C22.558 6.64148 17.9673 2.05078 12.3044 2.05078C6.64148 2.05078 2.05078 6.64148 2.05078 12.3044C2.05078 17.9673 6.64148 22.558 12.3044 22.558Z" stroke="black" stroke-width="2.05072" stroke-linecap="round" stroke-linejoin="round"/>
<path d="M12.3045 18.4562C15.7023 18.4562 18.4567 15.7018 18.4567 12.304C18.4567 8.90628 15.7023 6.15186 12.3045 6.15186C8.90677 6.15186 6.15234 8.90628 6.15234 12.304C6.15234 15.7018 8.90677 18.4562 12.3045 18.4562Z" stroke="black" stroke-width="2.05072" stroke-linecap="round" stroke-linejoin="round"/>
<path d="M12.3037 14.3549C13.4362 14.3549 14.3544 13.4367 14.3544 12.3041C14.3544 11.1716 13.4362 10.2534 12.3037 10.2534C11.1711 10.2534 10.2529 11.1716 10.2529 12.3041C10.2529 13.4367 11.1711 14.3549 12.3037 14.3549Z" stroke="black" stroke-width="2.05072" stroke-linecap="round" stroke-linejoin="round"/>
</svg>
