<svg width="30" height="32" viewBox="0 0 30 32" fill="none" xmlns="http://www.w3.org/2000/svg">
<path d="M4.5 14.5C2.8125 14.5 1.5 13.1875 1.5 11.5C1.5 9.85938 2.8125 8.5 4.5 8.5C6.14062 8.5 7.5 9.85938 7.5 11.5C7.5 13.1875 6.14062 14.5 4.5 14.5ZM25.5 14.5C23.8125 14.5 22.5 13.1875 22.5 11.5C22.5 9.85938 23.8125 8.5 25.5 8.5C27.1406 8.5 28.5 9.85938 28.5 11.5C28.5 13.1875 27.1406 14.5 25.5 14.5ZM27 16C28.6406 16 30 17.3594 30 19V20.5C30 21.3438 29.2969 22 28.5 22H25.4062C25.0781 19.7969 23.7656 17.9219 21.8438 16.8906C22.4062 16.375 23.1562 16 24 16H27ZM15 16C12.0938 16 9.75 13.6562 9.75 10.75C9.75 7.89062 12.0938 5.5 15 5.5C17.8594 5.5 20.25 7.89062 20.25 10.75C20.25 13.6562 17.8594 16 15 16ZM18.5625 17.5C21.5625 17.5 24 19.9375 24 22.9375V24.25C24 25.5156 22.9688 26.5 21.75 26.5H8.25C6.98438 26.5 6 25.5156 6 24.25V22.9375C6 19.9375 8.39062 17.5 11.3906 17.5H11.7656C12.75 17.9688 13.8281 18.25 15 18.25C16.125 18.25 17.2031 17.9688 18.1875 17.5H18.5625ZM8.10938 16.8906C6.1875 17.9219 4.875 19.7969 4.54688 22H1.5C0.65625 22 0 21.3438 0 20.5V19C0 17.3594 1.3125 16 3 16H6C6.79688 16 7.54688 16.375 8.10938 16.8906Z" fill="#FF5A4E"/>
</svg>
