<svg width="28" height="28" viewBox="0 0 28 28" fill="none" xmlns="http://www.w3.org/2000/svg">
<path d="M17.4993 2.33325H6.99935C6.38051 2.33325 5.78702 2.57908 5.34943 3.01667C4.91185 3.45425 4.66602 4.04775 4.66602 4.66659V23.3333C4.66602 23.9521 4.91185 24.5456 5.34943 24.9832C5.78702 25.4208 6.38051 25.6666 6.99935 25.6666H20.9993C21.6182 25.6666 22.2117 25.4208 22.6493 24.9832C23.0868 24.5456 23.3327 23.9521 23.3327 23.3333V8.16659L17.4993 2.33325Z" stroke="white" stroke-width="2.33333" stroke-linecap="round" stroke-linejoin="round"/>
<path d="M16.334 2.33325V6.99992C16.334 7.61876 16.5798 8.21225 17.0174 8.64983C17.455 9.08742 18.0485 9.33325 18.6673 9.33325H23.334" stroke="white" stroke-width="2.33333" stroke-linecap="round" stroke-linejoin="round"/>
<path d="M11.6673 10.5H9.33398" stroke="white" stroke-width="2.33333" stroke-linecap="round" stroke-linejoin="round"/>
<path d="M18.6673 15.1667H9.33398" stroke="white" stroke-width="2.33333" stroke-linecap="round" stroke-linejoin="round"/>
<path d="M18.6673 19.8333H9.33398" stroke="white" stroke-width="2.33333" stroke-linecap="round" stroke-linejoin="round"/>
</svg>
