<svg width="20" height="20" viewBox="0 0 20 20" fill="none" xmlns="http://www.w3.org/2000/svg">
<path d="M18.8 10.2083C18.8 9.55833 18.7417 8.93333 18.6333 8.33333H10V11.8833H14.9333C14.7167 13.025 14.0667 13.9917 13.0917 14.6417V16.95H16.0667C17.8 15.35 18.8 13 18.8 10.2083Z" fill="black"/>
<path d="M9.99974 19.1667C12.4747 19.1667 14.5497 18.35 16.0664 16.95L13.0914 14.6417C12.2747 15.1917 11.2331 15.525 9.99974 15.525C7.61641 15.525 5.59141 13.9167 4.86641 11.75H1.81641V14.1167C3.32474 17.1083 6.41641 19.1667 9.99974 19.1667Z" fill="black"/>
<path d="M4.86732 11.7417C4.68398 11.1917 4.57565 10.6083 4.57565 10C4.57565 9.39167 4.68398 8.80833 4.86732 8.25833V5.89167H1.81732C1.19232 7.125 0.833984 8.51667 0.833984 10C0.833984 11.4833 1.19232 12.875 1.81732 14.1083L4.19232 12.2583L4.86732 11.7417Z" fill="black"/>
<path d="M9.99974 4.48333C11.3497 4.48333 12.5497 4.95 13.5081 5.85L16.1331 3.225C14.5414 1.74167 12.4747 0.833332 9.99974 0.833332C6.41641 0.833332 3.32474 2.89167 1.81641 5.89167L4.86641 8.25833C5.59141 6.09167 7.61641 4.48333 9.99974 4.48333Z" fill="black"/>
</svg>
