<svg width="25" height="25" viewBox="0 0 25 25" fill="none" xmlns="http://www.w3.org/2000/svg">
<path d="M15.8694 13.2168L17.4229 21.959C17.4403 22.062 17.4258 22.1678 17.3815 22.2623C17.3371 22.3568 17.2649 22.4355 17.1746 22.4879C17.0843 22.5403 16.9802 22.5639 16.8761 22.5555C16.7721 22.5471 16.673 22.5071 16.5923 22.441L12.9215 19.6858C12.7443 19.5534 12.529 19.4819 12.3078 19.4819C12.0866 19.4819 11.8714 19.5534 11.6942 19.6858L8.0172 22.4399C7.93653 22.506 7.83762 22.5459 7.73368 22.5543C7.62975 22.5627 7.52572 22.5392 7.43548 22.487C7.34523 22.4347 7.27307 22.3562 7.22861 22.2619C7.18416 22.1675 7.16952 22.0619 7.18666 21.959L8.73906 13.2168" stroke="black" stroke-width="2.05072" stroke-linecap="round" stroke-linejoin="round"/>
<path d="M12.3045 14.3551C15.7023 14.3551 18.4567 11.6007 18.4567 8.20296C18.4567 4.8052 15.7023 2.05078 12.3045 2.05078C8.90677 2.05078 6.15234 4.8052 6.15234 8.20296C6.15234 11.6007 8.90677 14.3551 12.3045 14.3551Z" stroke="black" stroke-width="2.05072" stroke-linecap="round" stroke-linejoin="round"/>
</svg>
