<svg width="16" height="28" viewBox="0 0 16 28" fill="none" xmlns="http://www.w3.org/2000/svg">
<path d="M8 10.207C10.2148 10.207 12.043 12.0352 12.043 14.25C12.043 16.5 10.2148 18.293 8 18.293C5.75 18.293 3.95703 16.5 3.95703 14.25C3.95703 12.0352 5.75 10.207 8 10.207ZM8 16.8867C9.44141 16.8867 10.6016 15.7266 10.6016 14.25C10.6016 12.8086 9.44141 11.6484 8 11.6484C6.52344 11.6484 5.36328 12.8086 5.36328 14.25C5.36328 15.7266 6.55859 16.8867 8 16.8867ZM13.1328 10.0664C13.1328 10.5938 12.7109 11.0156 12.1836 11.0156C11.6562 11.0156 11.2344 10.5938 11.2344 10.0664C11.2344 9.53906 11.6562 9.11719 12.1836 9.11719C12.7109 9.11719 13.1328 9.53906 13.1328 10.0664ZM15.8047 11.0156C15.875 12.3164 15.875 16.2188 15.8047 17.5195C15.7344 18.7852 15.4531 19.875 14.5391 20.8242C13.625 21.7383 12.5 22.0195 11.2344 22.0898C9.93359 22.1602 6.03125 22.1602 4.73047 22.0898C3.46484 22.0195 2.375 21.7383 1.42578 20.8242C0.511719 19.875 0.230469 18.7852 0.160156 17.5195C0.0898438 16.2188 0.0898438 12.3164 0.160156 11.0156C0.230469 9.75 0.511719 8.625 1.42578 7.71094C2.375 6.79688 3.46484 6.51562 4.73047 6.44531C6.03125 6.375 9.93359 6.375 11.2344 6.44531C12.5 6.51562 13.625 6.79688 14.5391 7.71094C15.4531 8.625 15.7344 9.75 15.8047 11.0156ZM14.1172 18.8906C14.5391 17.8711 14.4336 15.4102 14.4336 14.25C14.4336 13.125 14.5391 10.6641 14.1172 9.60938C13.8359 8.94141 13.3086 8.37891 12.6406 8.13281C11.5859 7.71094 9.125 7.81641 8 7.81641C6.83984 7.81641 4.37891 7.71094 3.35938 8.13281C2.65625 8.41406 2.12891 8.94141 1.84766 9.60938C1.42578 10.6641 1.53125 13.125 1.53125 14.25C1.53125 15.4102 1.42578 17.8711 1.84766 18.8906C2.12891 19.5938 2.65625 20.1211 3.35938 20.4023C4.37891 20.8242 6.83984 20.7188 8 20.7188C9.125 20.7188 11.5859 20.8242 12.6406 20.4023C13.3086 20.1211 13.8711 19.5938 14.1172 18.8906Z" fill="#E4405F"/>
</svg>
