<svg width="172" height="32" viewBox="0 0 172 32" fill="none" xmlns="http://www.w3.org/2000/svg">
<g clip-path="url(#clip0_126_597)">
<path d="M70.8832 31.2499L70.8643 31.2579C68.7353 32.0839 66.3542 30.9902 65.5446 28.8167L60.6734 15.7231L55.8022 28.8167C55.7575 28.9351 55.7099 29.0506 55.6553 29.162C55.0243 30.4946 53.7703 31.3515 52.3953 31.5077C51.9448 31.6251 51.4895 31.661 51.044 31.6231C49.4725 31.4918 48.0469 30.4399 47.4903 28.8237L39.5028 5.63392C38.7479 3.44053 39.8779 1.03716 42.0258 0.265895L42.0446 0.257934C44.1935 -0.513334 46.5478 0.639089 47.3038 2.83347L51.7831 15.8415L56.6206 2.84044C57.2715 1.09289 58.9372 0.0439692 60.6724 0.12856C62.4066 0.042974 64.0743 1.0919 64.7242 2.84044L73.2741 25.8192C74.0837 27.9927 73.0132 30.4239 70.8832 31.2499Z" fill="black"/>
<path d="M38.8145 3.22349L30.8298 26.0057C30.0743 28.1612 31.2039 30.5228 33.3527 31.2806L33.3723 31.2875C35.5211 32.0453 37.8755 30.9123 38.6309 28.7568L46.6156 5.97462C47.3711 3.81916 46.2415 1.45751 44.0927 0.699716L44.0731 0.692784C41.9243 -0.0650061 39.5699 1.06803 38.8145 3.22349Z" fill="#01BD32"/>
<path d="M55.6543 29.1622C55.0074 30.6281 53.4538 31.6621 51.6412 31.6621C51.4378 31.6621 51.2384 31.6492 51.043 31.6233C51.4884 31.6621 51.9428 31.6253 52.3942 31.5079C53.7703 31.3516 55.0233 30.4948 55.6543 29.1622Z" fill="black"/>
<path d="M38.5215 25.8868L28.8971 2.69399C28.2492 1.13255 26.7581 0.179166 25.1727 0.142344C23.3314 -0.0268375 21.5396 1.06687 20.8987 2.89403L13.7198 23.35H4.09145C1.83143 23.35 0 25.1861 0 27.4502V27.5358C0 29.7998 1.83143 31.6359 4.09145 31.6359H16.3658C16.7964 31.6359 17.2111 31.5693 17.601 31.4449C18.9363 31.1373 20.0901 30.172 20.5783 28.7817L25.2471 15.4771L30.8862 29.0664C31.7633 31.1791 34.183 32.1793 36.2912 31.3015C38.3995 30.4228 39.3985 27.9985 38.5215 25.8858V25.8868Z" fill="#EC433D"/>
<path d="M49.4141 0.000183105H36.3431C34.0599 0.000183105 32.209 1.85683 32.209 4.14711V4.14811C32.209 6.4384 34.0599 8.29504 36.3431 8.29504H49.4141C51.6973 8.29504 53.5482 6.4384 53.5482 4.14811V4.14711C53.5482 1.85683 51.6973 0.000183105 49.4141 0.000183105Z" fill="#FFB730"/>
<path d="M93.1497 4.96009L94.5704 10.2276C94.6468 10.5162 94.6488 10.7073 94.5764 10.7998C94.5049 10.8934 94.3204 10.9401 94.0247 10.9401H93.7837C93.488 10.9401 93.2787 10.8934 93.1557 10.7998C93.0326 10.7063 92.9334 10.5162 92.858 10.2276L92.5286 8.92988H89.1803L88.8509 10.2276C88.7745 10.5162 88.6753 10.7073 88.5533 10.7998C88.4303 10.8934 88.2209 10.9401 87.9253 10.9401H87.6842C87.3885 10.9401 87.204 10.8934 87.1326 10.7998C87.0602 10.7063 87.0631 10.5162 87.1385 10.2276L88.5592 4.96009C88.6942 4.46847 88.8082 4.09925 88.9015 3.85344C88.9858 3.61559 89.1168 3.38272 89.2944 3.15383C89.599 2.7468 90.1188 2.54279 90.854 2.54279C91.5891 2.54279 92.11 2.7468 92.4136 3.15383C92.5912 3.38272 92.7221 3.61659 92.8064 3.85344C92.8997 4.09925 93.0138 4.46847 93.1487 4.96009H93.1497ZM90.1942 5.03672L89.5732 7.40326H92.1229L91.5137 5.03672C91.3957 4.62073 91.3064 4.358 91.2478 4.24754C91.1804 4.12911 91.0494 4.0694 90.855 4.0694C90.6605 4.0694 90.5296 4.12911 90.4621 4.24754C90.4026 4.358 90.3143 4.62073 90.1962 5.03672H90.1942Z" fill="black"/>
<path d="M102.206 5.31616C102.206 6.69051 101.635 7.52547 100.493 7.82303L102.155 10.3299C102.316 10.5677 102.374 10.729 102.333 10.8136C102.29 10.8981 102.121 10.9409 101.826 10.9409H101.344C101.056 10.9409 100.837 10.8981 100.684 10.8136C100.532 10.729 100.371 10.5638 100.202 10.317L98.6541 7.95041H97.5002V10.2025C97.5002 10.4911 97.4516 10.6862 97.3544 10.7877C97.2572 10.8892 97.0607 10.9399 96.7651 10.9399H96.5369C96.2413 10.9399 96.0438 10.8892 95.9476 10.7877C95.8504 10.6862 95.8018 10.4911 95.8018 10.2025V4.19757C95.8018 3.66316 95.9218 3.27504 96.1629 3.03321C96.404 2.79138 96.7909 2.67096 97.3236 2.67096H99.4041C101.273 2.67096 102.207 3.55369 102.207 5.31715L102.206 5.31616ZM99.4021 4.26027H97.8802C97.6262 4.26027 97.4992 4.38765 97.4992 4.64142V6.35911H99.4021C100.138 6.35911 100.505 6.01179 100.505 5.31616C100.505 4.95192 100.418 4.68422 100.245 4.51503C100.072 4.34585 99.791 4.26027 99.4021 4.26027Z" fill="black"/>
<path d="M109.524 4.96009L110.944 10.2276C111.021 10.5162 111.023 10.7073 110.95 10.7998C110.879 10.8934 110.694 10.9401 110.399 10.9401H110.158C109.862 10.9401 109.653 10.8934 109.53 10.7998C109.407 10.7063 109.307 10.5162 109.232 10.2276L108.903 8.92988H105.554L105.225 10.2276C105.149 10.5162 105.049 10.7073 104.927 10.7998C104.804 10.8934 104.595 10.9401 104.299 10.9401H104.058C103.763 10.9401 103.578 10.8934 103.507 10.7998C103.434 10.7063 103.437 10.5162 103.513 10.2276L104.933 4.96009C105.068 4.46847 105.182 4.09925 105.276 3.85344C105.36 3.61559 105.491 3.38272 105.668 3.15383C105.973 2.7468 106.493 2.54279 107.228 2.54279C107.963 2.54279 108.484 2.7468 108.788 3.15383C108.965 3.38272 109.096 3.61659 109.18 3.85344C109.274 4.09925 109.388 4.46847 109.523 4.96009H109.524ZM106.568 5.03672L105.947 7.40326H108.497L107.888 5.03672C107.77 4.62073 107.68 4.358 107.622 4.24754C107.554 4.12911 107.423 4.0694 107.229 4.0694C107.035 4.0694 106.904 4.12911 106.836 4.24754C106.777 4.358 106.688 4.62073 106.57 5.03672H106.568Z" fill="black"/>
<path d="M113.696 2.67029H115.522C117.323 2.67029 118.224 3.4127 118.224 4.89651C118.224 5.68569 117.894 6.27086 117.235 6.65202C117.683 6.87295 118.001 7.1317 118.192 7.42826C118.382 7.72483 118.478 8.103 118.478 8.56078C118.478 10.1471 117.535 10.9403 115.649 10.9403H113.696C113.163 10.9403 112.776 10.8198 112.535 10.578C112.294 10.3362 112.174 9.94807 112.174 9.41365V4.1969C112.174 3.66249 112.294 3.27436 112.535 3.03253C112.776 2.79071 113.163 2.67029 113.696 2.67029ZM115.522 4.26059H114.254C114 4.26059 113.873 4.38798 113.873 4.64175V5.97728H115.522C116.173 5.97728 116.498 5.6847 116.498 5.09953C116.498 4.51436 116.173 4.2596 115.522 4.2596V4.26059ZM115.649 7.4412H113.873V8.96781C113.873 9.22258 114 9.34996 114.254 9.34996H115.649C116.385 9.34996 116.752 9.04046 116.752 8.42145C116.752 7.76861 116.384 7.44219 115.649 7.44219V7.4412Z" fill="black"/>
<path d="M122.257 3.52217V3.40772C122.257 3.11912 122.305 2.92406 122.403 2.82255C122.5 2.72104 122.696 2.67029 122.992 2.67029H128.103C128.391 2.67029 128.585 2.72104 128.687 2.82255C128.788 2.92406 128.838 3.11912 128.838 3.40772V3.52217C128.838 3.81973 128.788 4.01677 128.687 4.1143C128.585 4.21183 128.391 4.26059 128.103 4.26059H126.404V10.2018C126.404 10.4904 126.353 10.6855 126.252 10.787C126.151 10.8885 125.956 10.9393 125.669 10.9393H125.428C125.132 10.9393 124.935 10.8885 124.837 10.787C124.74 10.6855 124.691 10.4904 124.691 10.2018V4.26059H122.992C122.696 4.26059 122.499 4.21183 122.403 4.1143C122.305 4.01677 122.257 3.81973 122.257 3.52217Z" fill="black"/>
<path d="M134.255 4.96009L135.676 10.2276C135.752 10.5162 135.754 10.7073 135.682 10.7998C135.61 10.8934 135.426 10.9401 135.13 10.9401H134.889C134.593 10.9401 134.384 10.8934 134.261 10.7998C134.138 10.7063 134.039 10.5162 133.964 10.2276L133.634 8.92988H130.286L129.956 10.2276C129.88 10.5162 129.781 10.7073 129.659 10.7998C129.536 10.8934 129.326 10.9401 129.031 10.9401H128.79C128.494 10.9401 128.309 10.8934 128.238 10.7998C128.166 10.7063 128.169 10.5162 128.244 10.2276L129.665 4.96009C129.8 4.46847 129.914 4.09925 130.007 3.85344C130.091 3.61559 130.222 3.38272 130.4 3.15383C130.704 2.7468 131.224 2.54279 131.959 2.54279C132.695 2.54279 133.215 2.7468 133.519 3.15383C133.697 3.38272 133.828 3.61659 133.912 3.85344C134.005 4.09925 134.119 4.46847 134.254 4.96009H134.255ZM131.301 5.03672L130.68 7.40326H133.229L132.62 5.03672C132.502 4.62073 132.413 4.358 132.354 4.24754C132.287 4.12911 132.156 4.0694 131.961 4.0694C131.767 4.0694 131.636 4.12911 131.569 4.24754C131.509 4.358 131.421 4.62073 131.303 5.03672H131.301Z" fill="black"/>
<path d="M136.906 10.2018V3.40772C136.906 3.11912 136.955 2.92406 137.052 2.82255C137.149 2.72104 137.346 2.67029 137.641 2.67029H137.87C138.165 2.67029 138.362 2.72104 138.459 2.82255C138.556 2.92406 138.605 3.11912 138.605 3.40772V10.2018C138.605 10.4904 138.556 10.6855 138.459 10.787C138.362 10.8885 138.165 10.9393 137.87 10.9393H137.641C137.346 10.9393 137.148 10.8885 137.052 10.787C136.955 10.6855 136.906 10.4904 136.906 10.2018ZM139.57 5.20204L141.155 3.24252C141.341 3.01363 141.513 2.86037 141.669 2.78473C141.826 2.70811 142.052 2.67029 142.348 2.67029H142.894C143.189 2.67029 143.357 2.70811 143.395 2.78473C143.432 2.86136 143.359 3.01363 143.172 3.24252L141.206 5.71057C140.842 6.1604 140.656 6.41914 140.647 6.48682C140.631 6.57141 140.622 6.62216 140.622 6.63908C140.622 6.72367 140.647 6.80428 140.698 6.88091L141.205 7.52977L143.424 10.3541C143.61 10.5919 143.684 10.7482 143.647 10.8248C143.609 10.9015 143.441 10.9393 143.146 10.9393H142.6C142.304 10.9393 142.078 10.9015 141.921 10.8248C141.765 10.7482 141.594 10.5919 141.407 10.3541L139.568 8.01343C139.179 7.52181 138.985 7.04611 138.985 6.58833C138.985 6.13054 139.179 5.66778 139.568 5.20104L139.57 5.20204Z" fill="black"/>
<path d="M144.072 3.52217V3.40772C144.072 3.11912 144.121 2.92406 144.218 2.82255C144.315 2.72104 144.512 2.67029 144.807 2.67029H149.919C150.206 2.67029 150.401 2.72104 150.502 2.82255C150.603 2.92406 150.654 3.11912 150.654 3.40772V3.52217C150.654 3.81973 150.603 4.01677 150.502 4.1143C150.401 4.21183 150.206 4.26059 149.919 4.26059H148.219V10.2018C148.219 10.4904 148.169 10.6855 148.067 10.787C147.966 10.8885 147.772 10.9393 147.484 10.9393H147.243C146.947 10.9393 146.75 10.8885 146.653 10.787C146.556 10.6855 146.507 10.4904 146.507 10.2018V4.26059H144.807C144.512 4.26059 144.314 4.21183 144.218 4.1143C144.121 4.01677 144.072 3.81973 144.072 3.52217Z" fill="black"/>
<path d="M151.975 10.2018V3.40772C151.975 3.11912 152.023 2.92406 152.12 2.82255C152.218 2.72104 152.414 2.67029 152.711 2.67029H152.939C153.235 2.67029 153.431 2.72104 153.528 2.82255C153.625 2.92406 153.674 3.11912 153.674 3.40772V10.2018C153.674 10.4904 153.625 10.6855 153.528 10.787C153.431 10.8885 153.235 10.9393 152.939 10.9393H152.711C152.414 10.9393 152.218 10.8885 152.12 10.787C152.023 10.6855 151.975 10.4904 151.975 10.2018Z" fill="black"/>
<path d="M155.526 10.2017V4.4764C155.526 3.76385 155.661 3.2593 155.932 2.96273C156.203 2.66617 156.655 2.51788 157.289 2.51788C157.813 2.51788 158.204 2.62835 158.463 2.84828C158.721 3.06922 158.921 3.47625 159.065 4.06937L160.385 9.40057C160.418 9.57871 160.495 9.66728 160.613 9.66728C160.689 9.66728 160.74 9.64439 160.765 9.59762C160.79 9.55085 160.802 9.45531 160.802 9.31101V3.40758C160.802 3.11897 160.851 2.92392 160.948 2.82241C161.045 2.7209 161.242 2.67015 161.539 2.67015H161.716C162.012 2.67015 162.208 2.7209 162.305 2.82241C162.403 2.92392 162.451 3.11897 162.451 3.40758V9.13287C162.451 9.84542 162.32 10.35 162.058 10.6465C161.796 10.9431 161.361 11.0914 160.752 11.0914C160.202 11.0914 159.794 10.975 159.528 10.7411C159.262 10.5082 159.052 10.0902 158.9 9.48815L157.606 4.29727C157.572 4.14501 157.54 4.04748 157.511 4.00469C157.481 3.9619 157.428 3.941 157.352 3.941C157.275 3.941 157.227 3.96488 157.206 4.01066C157.185 4.05743 157.174 4.16093 157.174 4.32215V10.1997C157.174 10.4883 157.126 10.6834 157.028 10.7849C156.931 10.8864 156.735 10.9371 156.439 10.9371H156.262C155.966 10.9371 155.768 10.8864 155.672 10.7849C155.575 10.6834 155.526 10.4883 155.526 10.1997V10.2017Z" fill="black"/>
<path d="M168.755 9.05622V6.96932C168.755 6.68072 168.806 6.48566 168.907 6.38415C169.008 6.28264 169.202 6.23189 169.49 6.23189H169.591C169.879 6.23189 170.074 6.28264 170.175 6.38415C170.276 6.48566 170.327 6.68072 170.327 6.96932V9.17067C170.327 9.77275 170.229 10.2076 170.035 10.4744C169.84 10.7411 169.494 10.9172 168.995 11.0028C168.698 11.0615 168.344 11.0914 167.93 11.0914C166.518 11.0914 165.503 10.8456 164.886 10.3539C164.26 9.85336 163.947 9.00945 163.947 7.82219V5.78605C163.947 4.76797 164.282 3.97282 164.949 3.40059C165.617 2.82836 166.589 2.54175 167.866 2.54175C168.433 2.54175 168.982 2.62634 169.515 2.79652C169.794 2.89006 169.978 2.99555 170.067 3.11497C170.155 3.2334 170.2 3.43343 170.2 3.71308V3.81459C170.2 4.11215 170.151 4.30223 170.054 4.38682C169.956 4.47141 169.773 4.47141 169.502 4.38682C168.952 4.21764 168.424 4.13205 167.917 4.13205C167.096 4.13205 166.522 4.26541 166.191 4.53311C165.862 4.79982 165.696 5.26059 165.696 5.91343V7.94858C165.696 8.44916 165.853 8.83131 166.166 9.09404C166.487 9.36572 167.079 9.50107 167.941 9.50107C168.009 9.50107 168.17 9.49311 168.424 9.47519C168.644 9.45827 168.753 9.31795 168.753 9.05522L168.755 9.05622Z" fill="black"/>
<path d="M96.4853 14.8503L96.8911 20.4233C96.9079 20.7199 96.8702 20.9179 96.777 21.0145C96.6837 21.112 96.4932 21.1608 96.2065 21.1608H95.9525C95.6569 21.1608 95.4555 21.11 95.3503 21.0085C95.2442 20.907 95.1837 20.7119 95.1668 20.4233L94.8116 14.9777C94.7948 14.7149 94.769 14.5428 94.7352 14.4622C94.7015 14.3816 94.6291 14.3418 94.5199 14.3418C94.4187 14.3418 94.3463 14.3826 94.3047 14.4622C94.262 14.5428 94.2243 14.7149 94.1906 14.9777L93.6072 19.6471C93.5397 20.2243 93.3919 20.6224 93.1637 20.8433C92.9524 21.0553 92.5595 21.1617 91.9841 21.1617C91.4682 21.1617 91.0873 21.0493 90.8422 20.8244C90.5972 20.5995 90.4364 20.2074 90.36 19.6471L89.7638 14.9777C89.7301 14.7149 89.6924 14.5428 89.6497 14.4622C89.607 14.3816 89.5356 14.3418 89.4344 14.3418C89.3332 14.3418 89.2628 14.3826 89.2251 14.4622C89.1874 14.5428 89.1596 14.7149 89.1427 14.9777L88.8005 20.4233C88.7836 20.7119 88.7221 20.907 88.6169 21.0085C88.5108 21.11 88.3103 21.1608 88.0147 21.1608H87.7607C87.473 21.1608 87.2825 21.112 87.1903 21.0145C87.097 20.9169 87.0593 20.7199 87.0762 20.4233L87.4819 14.8503C87.5325 14.1377 87.7101 13.6202 88.0147 13.2978C88.3193 12.9754 88.7836 12.8141 89.4096 12.8141C90.0009 12.8141 90.4454 12.9754 90.741 13.2978C91.0367 13.6202 91.2232 14.1377 91.2996 14.8503L91.7688 19.3416C91.7857 19.5287 91.8065 19.6451 91.8323 19.6919C91.8581 19.7386 91.9087 19.7615 91.9841 19.7615C92.0595 19.7615 92.1111 19.7386 92.1359 19.6919C92.1617 19.6451 92.1825 19.5287 92.1994 19.3416L92.6687 14.8503C92.7361 14.1377 92.9197 13.6202 93.2203 13.2978C93.5199 12.9754 93.9624 12.8141 94.5457 12.8141C95.1797 12.8141 95.649 12.9754 95.9535 13.2978C96.2581 13.6202 96.4357 14.1377 96.4863 14.8503H96.4853Z" fill="black"/>
<path d="M103.906 15.1816L105.326 20.4491C105.403 20.7377 105.405 20.9288 105.332 21.0213C105.261 21.1149 105.076 21.1616 104.781 21.1616H104.54C104.244 21.1616 104.035 21.1149 103.912 21.0213C103.789 20.9278 103.689 20.7377 103.614 20.4491L103.285 19.1514H99.9362L99.6068 20.4491C99.5304 20.7377 99.4312 20.9288 99.3091 21.0213C99.1861 21.1149 98.9768 21.1616 98.6811 21.1616H98.4401C98.1444 21.1616 97.9599 21.1149 97.8884 21.0213C97.816 20.9278 97.819 20.7377 97.8944 20.4491L99.3151 15.1816C99.45 14.69 99.5641 14.3207 99.6574 14.0749C99.7417 13.8371 99.8727 13.6042 100.05 13.3753C100.355 12.9683 100.875 12.7643 101.61 12.7643C102.345 12.7643 102.866 12.9683 103.169 13.3753C103.347 13.6042 103.478 13.8381 103.562 14.0749C103.656 14.3207 103.77 14.69 103.905 15.1816H103.906ZM100.95 15.2572L100.329 17.6238H102.879L102.27 15.2572C102.152 14.8412 102.062 14.5785 102.004 14.468C101.936 14.3496 101.805 14.2899 101.611 14.2899C101.416 14.2899 101.285 14.3496 101.218 14.468C101.158 14.5785 101.07 14.8412 100.952 15.2572H100.95Z" fill="black"/>
<path d="M106.555 20.4232V14.6979C106.555 13.9854 106.69 13.4808 106.96 13.1842C107.231 12.8877 107.684 12.7394 108.318 12.7394C108.841 12.7394 109.232 12.8498 109.491 13.0698C109.749 13.2907 109.95 13.6977 110.094 14.2909L111.413 19.6221C111.447 19.8002 111.523 19.8888 111.641 19.8888C111.718 19.8888 111.768 19.8659 111.793 19.8191C111.819 19.7723 111.831 19.6768 111.831 19.5325V13.6291C111.831 13.3405 111.879 13.1454 111.977 13.0439C112.074 12.9424 112.27 12.8916 112.567 12.8916H112.744C113.04 12.8916 113.237 12.9424 113.334 13.0439C113.431 13.1454 113.48 13.3405 113.48 13.6291V19.3544C113.48 20.0669 113.349 20.5715 113.087 20.868C112.825 21.1646 112.389 21.3129 111.78 21.3129C111.23 21.3129 110.823 21.1965 110.556 20.9626C110.289 20.7287 110.081 20.3117 109.928 19.7096L108.634 14.5188C108.6 14.3665 108.569 14.269 108.539 14.2262C108.509 14.1834 108.457 14.1625 108.38 14.1625C108.304 14.1625 108.255 14.1864 108.234 14.2322C108.213 14.2789 108.203 14.3824 108.203 14.5436V20.4212C108.203 20.7098 108.154 20.9049 108.057 21.0064C107.96 21.1079 107.763 21.1586 107.467 21.1586H107.29C106.994 21.1586 106.797 21.1079 106.701 21.0064C106.603 20.9049 106.555 20.7098 106.555 20.4212V20.4232Z" fill="black"/>
<path d="M120.925 15.1816L122.346 20.4491C122.422 20.7377 122.424 20.9288 122.352 21.0213C122.28 21.1149 122.096 21.1616 121.8 21.1616H121.559C121.263 21.1616 121.054 21.1149 120.931 21.0213C120.808 20.9278 120.709 20.7377 120.633 20.4491L120.304 19.1514H116.956L116.626 20.4491C116.55 20.7377 116.451 20.9288 116.329 21.0213C116.206 21.1149 115.996 21.1616 115.701 21.1616H115.46C115.164 21.1616 114.979 21.1149 114.908 21.0213C114.836 20.9278 114.839 20.7377 114.914 20.4491L116.335 15.1816C116.47 14.69 116.584 14.3207 116.677 14.0749C116.761 13.8371 116.892 13.6042 117.07 13.3753C117.374 12.9683 117.894 12.7643 118.629 12.7643C119.365 12.7643 119.885 12.9683 120.189 13.3753C120.367 13.6042 120.498 13.8381 120.582 14.0749C120.675 14.3207 120.789 14.69 120.924 15.1816H120.925ZM117.97 15.2572L117.349 17.6238H119.898L119.289 15.2572C119.171 14.8412 119.082 14.5785 119.023 14.468C118.956 14.3496 118.825 14.2899 118.63 14.2899C118.436 14.2899 118.305 14.3496 118.237 14.468C118.178 14.5785 118.09 14.8412 117.972 15.2572H117.97Z" fill="black"/>
<path d="M127.826 19.2777V17.1908C127.826 16.9022 127.877 16.7072 127.978 16.6056C128.079 16.5041 128.274 16.4534 128.561 16.4534H128.663C128.95 16.4534 129.145 16.5041 129.246 16.6056C129.347 16.7072 129.398 16.9022 129.398 17.1908V19.3922C129.398 19.9942 129.301 20.4291 129.106 20.6959C128.912 20.9626 128.565 21.1387 128.066 21.2243C127.77 21.283 127.416 21.3129 127.001 21.3129C125.589 21.3129 124.574 21.0671 123.957 20.5754C123.331 20.0749 123.019 19.2309 123.019 18.0437V16.0075C123.019 14.9895 123.353 14.1943 124.021 13.6221C124.688 13.0499 125.661 12.7632 126.937 12.7632C127.504 12.7632 128.053 12.8478 128.586 13.018C128.865 13.1116 129.05 13.217 129.138 13.3365C129.226 13.4549 129.271 13.6549 129.271 13.9346V14.0361C129.271 14.3336 129.222 14.5237 129.125 14.6083C129.028 14.6929 128.844 14.6929 128.573 14.6083C128.024 14.4391 127.495 14.3535 126.988 14.3535C126.168 14.3535 125.593 14.4869 125.263 14.7546C124.933 15.0213 124.768 15.4821 124.768 16.1349V18.1701C124.768 18.6707 124.924 19.0528 125.237 19.3155C125.558 19.5872 126.151 19.7226 127.013 19.7226C127.08 19.7226 127.241 19.7146 127.495 19.6967C127.715 19.6798 127.824 19.5394 127.824 19.2767L127.826 19.2777Z" fill="black"/>
<path d="M135.55 17.7252H132.595V19.1882C132.595 19.4429 132.722 19.5703 132.976 19.5703H136.058C136.346 19.5703 136.541 19.6191 136.642 19.7166C136.743 19.8141 136.794 20.0112 136.794 20.3077V20.4222C136.794 20.7108 136.743 20.9059 136.642 21.0074C136.541 21.1089 136.346 21.1596 136.058 21.1596H132.418C131.886 21.1596 131.499 21.0392 131.258 20.7974C131.017 20.5555 130.896 20.1674 130.896 19.633V14.4163C130.896 13.8818 131.017 13.4937 131.258 13.2519C131.499 13.0101 131.886 12.8896 132.418 12.8896H136.058C136.346 12.8896 136.541 12.9404 136.642 13.0419C136.743 13.1434 136.794 13.3385 136.794 13.6271V13.7415C136.794 14.0391 136.743 14.2361 136.642 14.3337C136.541 14.4312 136.346 14.48 136.058 14.48H132.976C132.722 14.48 132.595 14.6073 132.595 14.8611V16.1339H135.55C135.838 16.1339 136.033 16.1827 136.134 16.2802C136.235 16.3778 136.286 16.5748 136.286 16.8714V16.9858C136.286 17.2744 136.235 17.4695 136.134 17.571C136.033 17.6725 135.838 17.7233 135.55 17.7233V17.7252Z" fill="black"/>
<path d="M147.319 14.8503L147.725 20.4233C147.742 20.7199 147.704 20.9179 147.611 21.0145C147.518 21.112 147.327 21.1608 147.041 21.1608H146.787C146.491 21.1608 146.289 21.11 146.184 21.0085C146.078 20.907 146.018 20.7119 146.001 20.4233L145.646 14.9777C145.629 14.7149 145.603 14.5428 145.569 14.4622C145.535 14.3816 145.463 14.3418 145.354 14.3418C145.253 14.3418 145.18 14.3826 145.139 14.4622C145.096 14.5428 145.058 14.7149 145.025 14.9777L144.441 19.6471C144.374 20.2243 144.226 20.6224 143.998 20.8433C143.786 21.0553 143.394 21.1617 142.818 21.1617C142.302 21.1617 141.921 21.0493 141.676 20.8244C141.431 20.5995 141.27 20.2074 141.194 19.6471L140.598 14.9777C140.564 14.7149 140.526 14.5428 140.484 14.4622C140.441 14.3816 140.37 14.3418 140.268 14.3418C140.167 14.3418 140.097 14.3826 140.059 14.4622C140.021 14.5428 139.994 14.7149 139.977 14.9777L139.634 20.4233C139.618 20.7119 139.556 20.907 139.451 21.0085C139.345 21.11 139.144 21.1608 138.849 21.1608H138.595C138.307 21.1608 138.117 21.112 138.024 21.0145C137.931 20.9169 137.893 20.7199 137.91 20.4233L138.316 14.8503C138.367 14.1377 138.544 13.6202 138.849 13.2978C139.153 12.9754 139.618 12.8141 140.244 12.8141C140.835 12.8141 141.279 12.9754 141.575 13.2978C141.871 13.6202 142.057 14.1377 142.134 14.8503L142.603 19.3416C142.62 19.5287 142.641 19.6451 142.666 19.6919C142.692 19.7386 142.743 19.7615 142.818 19.7615C142.894 19.7615 142.945 19.7386 142.97 19.6919C142.996 19.6451 143.017 19.5287 143.033 19.3416L143.503 14.8503C143.57 14.1377 143.754 13.6202 144.054 13.2978C144.354 12.9754 144.796 12.8141 145.38 12.8141C146.014 12.8141 146.483 12.9754 146.788 13.2978C147.092 13.6202 147.27 14.1377 147.32 14.8503H147.319Z" fill="black"/>
<path d="M153.7 17.7252H150.744V19.1882C150.744 19.4429 150.871 19.5703 151.125 19.5703H154.208C154.496 19.5703 154.69 19.6191 154.791 19.7166C154.892 19.8141 154.943 20.0112 154.943 20.3077V20.4222C154.943 20.7108 154.892 20.9059 154.791 21.0074C154.69 21.1089 154.496 21.1596 154.208 21.1596H150.568C150.035 21.1596 149.648 21.0392 149.407 20.7974C149.166 20.5555 149.046 20.1674 149.046 19.633V14.4163C149.046 13.8818 149.166 13.4937 149.407 13.2519C149.648 13.0101 150.035 12.8896 150.568 12.8896H154.208C154.496 12.8896 154.69 12.9404 154.791 13.0419C154.892 13.1434 154.943 13.3385 154.943 13.6271V13.7415C154.943 14.0391 154.892 14.2361 154.791 14.3337C154.69 14.4312 154.496 14.48 154.208 14.48H151.125C150.871 14.48 150.744 14.6073 150.744 14.8611V16.1339H153.7C153.988 16.1339 154.182 16.1827 154.283 16.2802C154.384 16.3778 154.435 16.5748 154.435 16.8714V16.9858C154.435 17.2744 154.384 17.4695 154.283 17.571C154.182 17.6725 153.988 17.7233 153.7 17.7233V17.7252Z" fill="black"/>
<path d="M156.439 20.4232V14.6979C156.439 13.9854 156.574 13.4808 156.845 13.1842C157.116 12.8877 157.568 12.7394 158.202 12.7394C158.726 12.7394 159.117 12.8498 159.376 13.0698C159.634 13.2907 159.834 13.6977 159.978 14.2909L161.298 19.6221C161.332 19.8002 161.408 19.8888 161.526 19.8888C161.602 19.8888 161.653 19.8659 161.678 19.8191C161.704 19.7723 161.715 19.6768 161.715 19.5325V13.6291C161.715 13.3405 161.764 13.1454 161.861 13.0439C161.959 12.9424 162.155 12.8916 162.452 12.8916H162.629C162.925 12.8916 163.121 12.9424 163.219 13.0439C163.316 13.1454 163.364 13.3405 163.364 13.6291V19.3544C163.364 20.0669 163.233 20.5715 162.971 20.868C162.71 21.1646 162.274 21.3129 161.665 21.3129C161.115 21.3129 160.708 21.1965 160.441 20.9626C160.174 20.7287 159.965 20.3117 159.813 19.7096L158.519 14.5188C158.485 14.3665 158.453 14.269 158.424 14.2262C158.394 14.1834 158.341 14.1625 158.265 14.1625C158.189 14.1625 158.14 14.1864 158.119 14.2322C158.098 14.2789 158.087 14.3824 158.087 14.5436V20.4212C158.087 20.7098 158.039 20.9049 157.942 21.0064C157.844 21.1079 157.648 21.1586 157.352 21.1586H157.175C156.879 21.1586 156.682 21.1079 156.585 21.0064C156.488 20.9049 156.439 20.7098 156.439 20.4212V20.4232Z" fill="black"/>
<path d="M164.582 13.7437V13.6292C164.582 13.3406 164.631 13.1456 164.728 13.044C164.825 12.9425 165.022 12.8918 165.317 12.8918H170.429C170.716 12.8918 170.911 12.9425 171.012 13.044C171.113 13.1456 171.164 13.3406 171.164 13.6292V13.7437C171.164 14.0412 171.113 14.2383 171.012 14.3358C170.911 14.4333 170.716 14.4821 170.429 14.4821H168.729V20.4233C168.729 20.7119 168.678 20.907 168.577 21.0085C168.476 21.11 168.282 21.1608 167.994 21.1608H167.753C167.457 21.1608 167.26 21.11 167.162 21.0085C167.065 20.907 167.017 20.7119 167.017 20.4233V14.4821H165.317C165.022 14.4821 164.824 14.4333 164.728 14.3358C164.631 14.2383 164.582 14.0412 164.582 13.7437Z" fill="black"/>
<path d="M88.1283 25.9219V29.416C88.1283 29.9295 88.0608 30.3465 87.9259 30.6679C87.7909 30.9894 87.5816 31.2531 87.2989 31.4591C87.2671 31.482 87.2393 31.4959 87.2165 31.4999C87.1937 31.5049 87.1729 31.4989 87.155 31.483C87.1371 31.4671 87.1163 31.4402 87.0935 31.4044L87.0657 31.3696C87.0022 31.278 87.0082 31.2063 87.0866 31.1566C87.3147 30.9914 87.4814 30.7724 87.5876 30.4998C87.6927 30.2271 87.7453 29.8708 87.7453 29.4299V25.9219C87.7453 25.8582 87.7562 25.8144 87.78 25.7915C87.8029 25.7687 87.8465 25.7567 87.91 25.7567H87.9646C88.0281 25.7567 88.0717 25.7687 88.0945 25.7915C88.1174 25.8144 88.1293 25.8582 88.1293 25.9219H88.1283Z" fill="#01BD32"/>
<path d="M89.0889 28.8597V25.923C89.0889 25.8593 89.0998 25.8155 89.1236 25.7926C89.1464 25.7697 89.1901 25.7578 89.2536 25.7578H89.3012C89.3647 25.7578 89.4083 25.7697 89.4311 25.7926C89.454 25.8155 89.4659 25.8593 89.4659 25.923V28.8597C89.4659 29.2399 89.5651 29.5146 89.7645 29.6818C89.9629 29.849 90.2824 29.9325 90.7209 29.9325C91.1594 29.9325 91.4769 29.849 91.6743 29.6818C91.8707 29.5146 91.969 29.2409 91.969 28.8597V25.923C91.969 25.8593 91.9809 25.8155 92.0037 25.7926C92.0265 25.7697 92.0701 25.7578 92.1336 25.7578H92.1813C92.2448 25.7578 92.2884 25.7697 92.3112 25.7926C92.3341 25.8155 92.346 25.8593 92.346 25.923V28.8597C92.346 29.8131 91.8043 30.2908 90.7209 30.2908C89.6375 30.2908 89.0889 29.8141 89.0889 28.8597Z" fill="#01BD32"/>
<path d="M93.1816 29.9186V29.8638C93.1816 29.7355 93.2362 29.6917 93.3463 29.7335C93.6479 29.8569 94.0319 29.9196 94.4982 29.9196C94.896 29.9196 95.1827 29.8688 95.3583 29.7683C95.5339 29.6678 95.6222 29.4956 95.6222 29.2528C95.6222 29.1195 95.5875 29.001 95.519 28.8955C95.4595 28.795 95.393 28.7124 95.3206 28.6477C95.27 28.602 95.149 28.5213 94.9575 28.4069L93.888 27.7262C93.4396 27.4505 93.2164 27.0982 93.2164 26.6673C93.2164 26.0254 93.6737 25.704 94.5875 25.704C95.022 25.704 95.3732 25.7617 95.6431 25.8761C95.6887 25.8941 95.7224 25.91 95.7423 25.9209C95.7631 25.9329 95.779 25.9508 95.7899 25.9757C95.8018 26.0005 95.8068 26.0344 95.8068 26.0752V26.1299C95.8068 26.2583 95.7562 26.3001 95.656 26.2533C95.3722 26.1299 95.016 26.0672 94.5865 26.0672C94.2343 26.0672 93.9833 26.115 93.8325 26.2115C93.6817 26.3081 93.6063 26.4633 93.6063 26.6793C93.6063 26.8445 93.645 26.9808 93.7223 27.0883C93.7997 27.1958 93.9347 27.3072 94.1271 27.4217L95.2105 28.1163C95.3385 28.1939 95.4684 28.2865 95.6014 28.392C95.7155 28.4795 95.8117 28.601 95.8891 28.7562C95.9665 28.9125 96.0062 29.0747 96.0062 29.2448C96.0062 29.9415 95.4962 30.2908 94.4773 30.2908C94.0527 30.2908 93.6727 30.2311 93.3394 30.1116C93.2709 30.0888 93.2273 30.0659 93.2094 30.043C93.1906 30.0201 93.1816 29.9783 93.1816 29.9196V29.9186Z" fill="#01BD32"/>
<path d="M96.541 25.9498V25.9219C96.541 25.8582 96.5519 25.8144 96.5757 25.7915C96.5986 25.7687 96.6422 25.7567 96.7057 25.7567H99.7158C99.7792 25.7567 99.8229 25.7687 99.8457 25.7915C99.8685 25.8144 99.8804 25.8582 99.8804 25.9219V25.9498C99.8804 26.0145 99.8685 26.0573 99.8457 26.0801C99.8229 26.103 99.7792 26.115 99.7158 26.115H98.3992V30.0629C98.3992 30.1276 98.3873 30.1704 98.3645 30.1932C98.3417 30.2161 98.298 30.2281 98.2345 30.2281H98.1869C98.1224 30.2281 98.0798 30.2171 98.057 30.1932C98.0341 30.1704 98.0222 30.1266 98.0222 30.0629V26.115H96.7057C96.6412 26.115 96.5986 26.104 96.5757 26.0801C96.5529 26.0573 96.541 26.0135 96.541 25.9498Z" fill="#01BD32"/>
<path d="M102.624 30.0629V25.9219C102.624 25.8582 102.635 25.8144 102.659 25.7915C102.682 25.7687 102.725 25.7567 102.789 25.7567H102.843C102.907 25.7567 102.95 25.7687 102.973 25.7915C102.996 25.8144 103.008 25.8582 103.008 25.9219V30.0629C103.008 30.1276 102.996 30.1704 102.973 30.1932C102.95 30.2161 102.907 30.2281 102.843 30.2281H102.789C102.724 30.2281 102.682 30.2171 102.659 30.1932C102.636 30.1704 102.624 30.1266 102.624 30.0629Z" fill="#01BD32"/>
<path d="M104.125 30.0629V26.3559C104.125 25.9249 104.315 25.709 104.694 25.709C104.859 25.709 104.986 25.7488 105.075 25.8294C105.165 25.91 105.243 26.0533 105.312 26.2593L106.436 29.6569C106.472 29.7673 106.51 29.842 106.549 29.8808C106.587 29.9196 106.641 29.9395 106.709 29.9395C106.837 29.9395 106.902 29.846 106.902 29.6579V25.923C106.902 25.8593 106.913 25.8155 106.937 25.7926C106.96 25.7697 107.003 25.7578 107.067 25.7578H107.114C107.179 25.7578 107.221 25.7697 107.244 25.7926C107.267 25.8155 107.279 25.8593 107.279 25.923V29.63C107.279 29.8589 107.234 30.0241 107.145 30.1256C107.056 30.2261 106.916 30.2769 106.723 30.2769C106.55 30.2769 106.417 30.2341 106.326 30.1495C106.234 30.0649 106.154 29.9126 106.085 29.6917L104.967 26.335C104.931 26.2245 104.894 26.1489 104.857 26.1081C104.82 26.0663 104.77 26.0464 104.706 26.0464C104.565 26.0464 104.494 26.1449 104.494 26.3419V30.0629C104.494 30.1276 104.482 30.1704 104.459 30.1933C104.437 30.2162 104.393 30.2281 104.329 30.2281H104.289C104.224 30.2281 104.182 30.2172 104.159 30.1933C104.136 30.1704 104.124 30.1266 104.124 30.0629H104.125Z" fill="#01BD32"/>
<path d="M109.987 25.9498V25.9219C109.987 25.8582 109.998 25.8144 110.022 25.7915C110.045 25.7687 110.089 25.7567 110.152 25.7567H113.162C113.226 25.7567 113.269 25.7687 113.292 25.7915C113.315 25.8144 113.327 25.8582 113.327 25.9219V25.9498C113.327 26.0145 113.315 26.0573 113.292 26.0801C113.269 26.103 113.226 26.115 113.162 26.115H111.846V30.0629C111.846 30.1276 111.834 30.1704 111.811 30.1932C111.788 30.2161 111.744 30.2281 111.681 30.2281H111.633C111.569 30.2281 111.526 30.2171 111.503 30.1932C111.48 30.1704 111.469 30.1266 111.469 30.0629V26.115H110.152C110.088 26.115 110.045 26.104 110.022 26.0801C109.999 26.0573 109.987 26.0135 109.987 25.9498Z" fill="#01BD32"/>
<path d="M115.693 26.5895L116.673 30.0558C116.691 30.1244 116.693 30.1702 116.676 30.1931C116.66 30.216 116.616 30.2279 116.542 30.2279H116.514C116.446 30.2279 116.396 30.217 116.367 30.1931C116.337 30.1702 116.31 30.1244 116.287 30.0558L115.91 28.7212H113.771L113.394 30.0558C113.371 30.1244 113.345 30.1702 113.315 30.1931C113.285 30.216 113.236 30.2279 113.167 30.2279H113.139C113.066 30.2279 113.021 30.217 113.005 30.1931C112.989 30.1702 112.99 30.1244 113.008 30.0558L113.989 26.5895C114.089 26.2363 114.194 26.0004 114.304 25.881C114.423 25.7616 114.602 25.7018 114.839 25.7018C115.076 25.7018 115.257 25.7616 115.367 25.881C115.481 25.9954 115.588 26.2313 115.689 26.5895H115.693ZM114.396 26.486L113.868 28.3709H115.816L115.288 26.486C115.238 26.3119 115.181 26.1935 115.117 26.1318C115.052 26.0701 114.961 26.0392 114.843 26.0392C114.725 26.0392 114.632 26.0701 114.568 26.1318C114.503 26.1935 114.447 26.3119 114.396 26.486Z" fill="#01BD32"/>
<path d="M117.387 30.0629V25.9219C117.387 25.8582 117.399 25.8144 117.421 25.7915C117.444 25.7687 117.488 25.7567 117.551 25.7567H117.599C117.663 25.7567 117.706 25.7687 117.729 25.7915C117.752 25.8144 117.764 25.8582 117.764 25.9219V30.0629C117.764 30.1276 117.752 30.1704 117.729 30.1932C117.706 30.2161 117.663 30.2281 117.599 30.2281H117.551C117.487 30.2281 117.444 30.2171 117.421 30.1932C117.399 30.1704 117.387 30.1266 117.387 30.0629ZM118.456 27.2425L119.587 25.9219C119.683 25.8114 119.804 25.7567 119.95 25.7567H119.985C120.071 25.7567 120.121 25.7687 120.133 25.7915C120.144 25.8144 120.12 25.8582 120.06 25.9219L118.723 27.4973C118.563 27.6854 118.483 27.8157 118.483 27.8894C118.483 27.9541 118.563 28.0864 118.723 28.2885L120.197 30.0559C120.257 30.1246 120.281 30.1704 120.27 30.1932C120.258 30.2161 120.209 30.2281 120.122 30.2281H120.087C119.996 30.2281 119.927 30.2181 119.878 30.1972C119.829 30.1763 119.779 30.1315 119.723 30.0629L118.454 28.5432C118.317 28.378 118.226 28.2516 118.18 28.1651C118.135 28.0785 118.112 27.9859 118.112 27.8904C118.112 27.7949 118.136 27.7013 118.184 27.6117C118.232 27.5222 118.322 27.3998 118.455 27.2435L118.456 27.2425Z" fill="#01BD32"/>
<path d="M120.663 25.9498V25.9219C120.663 25.8582 120.674 25.8144 120.698 25.7915C120.721 25.7687 120.764 25.7567 120.828 25.7567H123.838C123.901 25.7567 123.945 25.7687 123.968 25.7915C123.991 25.8144 124.003 25.8582 124.003 25.9219V25.9498C124.003 26.0145 123.991 26.0573 123.968 26.0801C123.945 26.103 123.901 26.115 123.838 26.115H122.521V30.0629C122.521 30.1276 122.509 30.1704 122.487 30.1932C122.464 30.2161 122.42 30.2281 122.357 30.2281H122.309C122.244 30.2281 122.202 30.2171 122.179 30.1932C122.156 30.1704 122.144 30.1266 122.144 30.0629V26.115H120.828C120.763 26.115 120.721 26.104 120.698 26.0801C120.675 26.0573 120.663 26.0135 120.663 25.9498Z" fill="#01BD32"/>
<path d="M80.0615 0.125427V31.5016" stroke="black" stroke-width="3.35406" stroke-miterlimit="10"/>
</g>
<defs>
<clipPath id="clip0_126_597">
<rect width="171.166" height="31.6608" fill="white"/>
</clipPath>
</defs>
</svg>
