<svg width="16" height="28" viewBox="0 0 16 28" fill="none" xmlns="http://www.w3.org/2000/svg">
<path d="M14.75 6.375C15.3477 6.375 15.875 6.90234 15.875 7.53516V21C15.875 21.6328 15.3477 22.125 14.75 22.125H1.21484C0.617188 22.125 0.125 21.6328 0.125 21V7.53516C0.125 6.90234 0.617188 6.375 1.21484 6.375H14.75ZM4.87109 19.875V12.3867H2.55078V19.875H4.87109ZM3.71094 11.332C4.44922 11.332 5.04688 10.7344 5.04688 9.99609C5.04688 9.25781 4.44922 8.625 3.71094 8.625C2.9375 8.625 2.33984 9.25781 2.33984 9.99609C2.33984 10.7344 2.9375 11.332 3.71094 11.332ZM13.625 19.875V15.7617C13.625 13.7578 13.168 12.1758 10.8125 12.1758C9.6875 12.1758 8.91406 12.8086 8.59766 13.4062H8.5625V12.3867H6.34766V19.875H8.66797V16.1836C8.66797 15.1992 8.84375 14.25 10.0742 14.25C11.2695 14.25 11.2695 15.375 11.2695 16.2188V19.875H13.625Z" fill="#0A66C2"/>
</svg>
