<svg width="10" height="14" viewBox="0 0 10 14" fill="none" xmlns="http://www.w3.org/2000/svg">
<path d="M8.20541 6.40497C8.73876 6.40497 9.19006 6.85627 9.19006 7.38962V11.3282C9.19006 11.8821 8.73876 12.3129 8.20541 12.3129H0.984649C0.430784 12.3129 0 11.8821 0 11.3282V7.38962C0 6.85627 0.430784 6.40497 0.984649 6.40497H1.47697V4.928C1.47697 3.22538 2.87189 1.80994 4.59503 1.80994C6.29765 1.80994 7.71308 3.22538 7.71308 4.928V6.40497H8.20541ZM6.072 6.40497V4.928C6.072 4.12797 5.39506 3.45102 4.59503 3.45102C3.77449 3.45102 3.11805 4.12797 3.11805 4.928V6.40497H6.072Z" fill="#6B7280"/>
</svg>
