<svg width="31" height="32" viewBox="0 0 31 32" fill="none" xmlns="http://www.w3.org/2000/svg">
<path d="M29.4375 11.2188C30.5156 11.5469 30.5156 13 29.4375 13.3281L16.3594 17.3594C15.4219 17.6406 14.5781 17.5 14.1562 17.3594L5.01562 14.5469C4.40625 14.9219 4.07812 15.5781 4.03125 16.2812C4.45312 16.5156 4.78125 16.9844 4.78125 17.5C4.78125 18.0156 4.5 18.4375 4.125 18.7188L5.29688 24.1094C5.39062 24.5781 5.0625 25 4.59375 25H1.92188C1.45312 25 1.125 24.5781 1.21875 24.1094L2.39062 18.7188C2.01562 18.4375 1.78125 18.0156 1.78125 17.5C1.78125 16.9844 2.0625 16.5156 2.53125 16.2344C2.57812 15.4375 2.85938 14.6406 3.375 14.0312L1.07812 13.3281C0 13 0 11.5469 1.07812 11.2188L14.1562 7.1875C14.8594 6.95312 15.6562 6.95312 16.3594 7.1875L29.4375 11.2188ZM16.7812 18.8125L23.5781 16.7031L24.2812 22C24.2812 23.6875 20.25 25 15.2812 25C10.2656 25 6.28125 23.6875 6.28125 22L6.9375 16.7031L13.7344 18.8125C14.2969 19 15.4688 19.1875 16.7812 18.8125Z" fill="#FFD400"/>
</svg>
