<svg width="14" height="25" viewBox="0 0 14 25" fill="none" xmlns="http://www.w3.org/2000/svg">
<path d="M8.01542 17.9385L7.33847 18.6154C7.03077 18.8923 6.56922 18.8923 6.29228 18.6154L0.322849 12.6152C0.0151463 12.3383 0.0151463 11.8767 0.322849 11.5998L6.29228 5.59958C6.56922 5.32264 7.06154 5.32264 7.33847 5.59958L8.01542 6.27652C8.32312 6.58423 8.29235 7.04578 8.01542 7.35348L4.29222 10.8613H13.1541C13.5541 10.8613 13.8925 11.1998 13.8925 11.5998V12.5844C13.8925 13.0152 13.5541 13.3229 13.1541 13.3229H4.29222L8.01542 16.8615C8.29235 17.1692 8.32312 17.6308 8.01542 17.9385Z" fill="#1A1A1A"/>
</svg>
