<svg width="13" height="13" viewBox="0 0 13 13" fill="none" xmlns="http://www.w3.org/2000/svg">
<path d="M5.19701 0.847686L5.79874 0.245956C6.07225 -0.000205949 6.48252 -0.000205949 6.72868 0.245956L12.0622 5.55212C12.3084 5.82563 12.3084 6.2359 12.0622 6.48207L6.72868 11.8156C6.48252 12.0617 6.07225 12.0617 5.79874 11.8156L5.19701 11.2139C4.95084 10.9403 4.95084 10.5301 5.19701 10.2566L8.50652 7.11115H0.656681C0.273762 7.11115 0.000248432 6.83763 0.000248432 6.45472V5.57947C0.000248432 5.2239 0.273762 4.92304 0.656681 4.92304H8.50652L5.19701 1.80498C4.95084 1.53147 4.92349 1.1212 5.19701 0.847686Z" fill="white"/>
</svg>
