<svg width="14" height="16" viewBox="0 0 14 16" fill="none" xmlns="http://www.w3.org/2000/svg">
<path d="M11 10C12.6562 10 14 11.3438 14 13C14 14.6875 12.6562 16 11 16C9.3125 16 8 14.6875 8 13V13.0312C8 12.7812 8 12.5625 8.0625 12.375L4.84375 10.375C4.34375 10.7812 3.6875 11 3 11C1.3125 11 0 9.6875 0 8C0 6.34375 1.3125 5 3 5C3.6875 5 4.34375 5.25 4.84375 5.65625L8.0625 3.65625C8 3.46875 8 3.25 8 3C8 1.34375 9.3125 0 11 0C12.6562 0 14 1.34375 14 3C14 4.6875 12.6562 6 11 6C10.2812 6 9.625 5.78125 9.125 5.375L5.90625 7.375C5.96875 7.5625 5.96875 7.78125 5.96875 8C5.96875 8.25 5.96875 8.46875 5.90625 8.65625L9.125 10.6562C9.625 10.25 10.2812 10 11 10Z" fill="#111111"/>
</svg>
