<svg width="25" height="25" viewBox="0 0 25 25" fill="none" xmlns="http://www.w3.org/2000/svg">
<path d="M15.8694 13.2173L17.4229 21.9595C17.4403 22.0625 17.4258 22.1683 17.3815 22.2628C17.3371 22.3573 17.2649 22.436 17.1746 22.4884C17.0843 22.5408 16.9802 22.5644 16.8761 22.556C16.7721 22.5476 16.673 22.5076 16.5923 22.4414L12.9215 19.6863C12.7443 19.5539 12.529 19.4824 12.3078 19.4824C12.0866 19.4824 11.8714 19.5539 11.6942 19.6863L8.0172 22.4404C7.93653 22.5065 7.83762 22.5464 7.73368 22.5548C7.62975 22.5632 7.52572 22.5397 7.43548 22.4874C7.34523 22.4352 7.27307 22.3567 7.22861 22.2623C7.18416 22.168 7.16952 22.0624 7.18666 21.9595L8.73906 13.2173" stroke="white" stroke-width="2.05072" stroke-linecap="round" stroke-linejoin="round"/>
<path d="M12.3045 14.3551C15.7023 14.3551 18.4567 11.6007 18.4567 8.20296C18.4567 4.8052 15.7023 2.05078 12.3045 2.05078C8.90677 2.05078 6.15234 4.8052 6.15234 8.20296C6.15234 11.6007 8.90677 14.3551 12.3045 14.3551Z" stroke="white" stroke-width="2.05072" stroke-linecap="round" stroke-linejoin="round"/>
</svg>
