<svg width="20" height="28" viewBox="0 0 20 28" fill="none" xmlns="http://www.w3.org/2000/svg">
<path d="M10 4.8125C15.3516 4.8125 19.6875 9.14844 19.6875 14.5C19.6875 19.8516 15.3516 24.1875 10 24.1875C4.64844 24.1875 0.3125 19.8516 0.3125 14.5C0.3125 9.14844 4.64844 4.8125 10 4.8125ZM10 22.3125C14.2969 22.3125 17.8125 18.8359 17.8125 14.5C17.8125 10.2031 14.2969 6.6875 10 6.6875C5.66406 6.6875 2.1875 10.2031 2.1875 14.5C2.1875 18.8359 5.66406 22.3125 10 22.3125ZM12.3828 18.25L9.0625 15.8281C8.94531 15.75 8.90625 15.5938 8.90625 15.4766V9.03125C8.90625 8.79688 9.10156 8.5625 9.375 8.5625H10.625C10.8594 8.5625 11.0938 8.79688 11.0938 9.03125V14.5781L13.6719 16.4922C13.9062 16.6484 13.9453 16.9219 13.7891 17.1562L13.0469 18.1328C12.8906 18.3672 12.6172 18.4062 12.3828 18.25Z" fill="#FFD400"/>
</svg>
