<svg width="16" height="16" viewBox="0 0 16 16" fill="none" xmlns="http://www.w3.org/2000/svg">
<path d="M15.2621 7.63117C15.2621 11.8467 11.8159 15.2622 7.6311 15.2622C3.41557 15.2622 6.85006e-05 11.8467 6.85006e-05 7.63117C6.85006e-05 3.44641 3.41557 0.000138715 7.6311 0.000138715C11.8159 0.000138715 15.2621 3.44641 15.2621 7.63117ZM6.73876 11.6928L12.4005 6.03111C12.5851 5.84649 12.5851 5.50802 12.4005 5.3234L11.6928 4.64645C11.5082 4.43106 11.2005 4.43106 11.0158 4.64645L6.40029 9.26199L4.2156 7.10807C4.03098 6.89268 3.72327 6.89268 3.53865 7.10807L2.83093 7.78502C2.64631 7.96964 2.64631 8.30811 2.83093 8.49274L6.03104 11.6928C6.21567 11.8775 6.55414 11.8775 6.73876 11.6928Z" fill="#22C55E"/>
</svg>
