<svg width="21" height="28" viewBox="0 0 21 28" fill="none" xmlns="http://www.w3.org/2000/svg">
<path d="M19.6758 9.64453C20.0977 11.1211 20.0977 14.2852 20.0977 14.2852C20.0977 14.2852 20.0977 17.4141 19.6758 18.9258C19.4648 19.7695 18.7969 20.4023 17.9883 20.6133C16.4766 21 10.5 21 10.5 21C10.5 21 4.48828 21 2.97656 20.6133C2.16797 20.4023 1.5 19.7695 1.28906 18.9258C0.867188 17.4141 0.867188 14.2852 0.867188 14.2852C0.867188 14.2852 0.867188 11.1211 1.28906 9.64453C1.5 8.80078 2.16797 8.13281 2.97656 7.92188C4.48828 7.5 10.5 7.5 10.5 7.5C10.5 7.5 16.4766 7.5 17.9883 7.92188C18.7969 8.13281 19.4648 8.80078 19.6758 9.64453ZM8.53125 17.1328L13.5234 14.2852L8.53125 11.4375V17.1328Z" fill="#FF0000"/>
</svg>
